<svg width="256" height="256" viewBox="0 0 256 256" xmlns="http://www.w3.org/2000/svg" role="img" aria-label="GitHub icon">
  <path fill="#0F172A" d="M128 24C73.4 24 28 69.5 28 124.2c0 44.3 28.6 81.9 68.4 95.1 5 .9 6.8-2.2 6.8-4.8 0-2.3-.1-9.9-.1-17.9-27.8 6-33.6-12-33.6-12-4.5-11.5-11-14.6-11-14.6-9-6.1.7-6 .7-6 10 0.7 15.3 10.3 15.3 10.3 8.8 15.1 23.1 10.7 28.8 8.2.9-6.4 3.4-10.7 6.2-13.2-22.2-2.5-45.5-11.1-45.5-49.5 0-10.9 3.9-19.8 10.3-26.8-1-2.6-4.5-13 .9-27.1 0 0 8.4-2.7 27.6 10.2a95.6 95.6 0 0 1 50.2 0c19.2-12.9 27.6-10.2 27.6-10.2 5.4 14.1 1.9 24.5.9 27.1 6.4 7 10.3 15.9 10.3 26.8 0 38.5-23.3 47-45.6 49.5 3.5 3 6.7 9 6.7 18.2 0 13.2-.1 23.8-.1 27 0 2.7 1.8 5.8 6.9 4.8 39.7-13.3 68.3-50.8 68.3-95C228 69.5 182.6 24 128 24Z"/>
</svg>
